<svg width="171" height="20" viewBox="0 0 171 20" fill="none" xmlns="http://www.w3.org/2000/svg">
<path d="M15.1431 10.648C14.9062 9.86343 14.3733 9.26393 13.5518 8.84206C12.7228 8.42759 11.5534 8.16116 10.0288 8.04274L7.4013 7.8355L8.21544 4.28291C8.63732 4.2237 9.01478 4.18669 9.36264 4.16449C9.7031 4.14228 10.162 4.13489 10.7245 4.13489C11.5978 4.13489 12.4046 4.17188 13.1595 4.2533C13.907 4.33471 14.7286 4.46054 15.6167 4.63077L16.9638 1.16698C15.972 0.930143 14.9654 0.759921 13.9589 0.641501C12.9523 0.523081 11.8939 0.463867 10.7837 0.463867C9.22942 0.463867 7.9416 0.656294 6.91282 1.04856C5.88403 1.43342 5.06249 2.07734 4.44818 2.96549C3.83387 3.85364 3.36019 5.05264 3.01233 6.54769C2.79029 7.50244 2.70887 8.29438 2.76808 8.93088C2.8273 9.56739 3.04933 10.0929 3.4416 10.4999C3.83387 10.907 4.41117 11.2253 5.17351 11.4621C5.93584 11.6989 6.90541 11.8618 8.08962 11.958L10.7393 12.1948L9.93254 15.7178C9.35524 15.7918 8.85196 15.8436 8.43008 15.8658C8.00821 15.888 7.55673 15.8955 7.06824 15.8955C6.09867 15.8955 5.1291 15.8214 4.15213 15.6808C3.17516 15.5328 2.2722 15.3404 1.43585 15.0813L0 18.6561C0.991774 18.967 2.03536 19.189 3.10855 19.3296C4.18174 19.4628 5.32154 19.5369 6.52795 19.5369C8.25245 19.5369 9.6883 19.3444 10.8355 18.9522C11.9827 18.5673 12.8931 17.9456 13.5814 17.0871C14.2623 16.2359 14.7582 15.1183 15.0765 13.7417C15.3503 12.4687 15.3799 11.4325 15.1431 10.648Z" fill="white"/>
<path d="M31.7595 3.57167C31.5745 2.63171 31.0934 1.95079 30.3088 1.53633C29.5243 1.12186 28.3993 0.907227 26.9487 0.907227H19.2365L15.0474 19.0921H19.3845L20.5835 13.8816H24.3952C26.3343 13.8816 27.8738 13.3635 28.9988 12.3273C30.1312 11.2912 30.9602 9.62588 31.4857 7.33889C31.8483 5.76983 31.9445 4.51902 31.7595 3.57167ZM27.2965 5.71803L26.438 9.44085C26.3269 9.90713 26.1419 10.2254 25.8829 10.403C25.6164 10.5806 25.1871 10.6621 24.5876 10.6621H21.3311L22.7521 4.49682H26.0087C26.6082 4.49682 27.0005 4.58564 27.1855 4.75587C27.3705 4.9261 27.4001 5.25175 27.2965 5.71803Z" fill="white"/>
<path d="M48.3671 5.31852C48.3967 4.08991 48.1969 3.12035 47.775 2.40983C47.3457 1.69932 46.6426 1.20343 45.6582 0.907385C44.6738 0.618736 43.4008 0.470703 41.8317 0.470703C40.2405 0.470703 38.8934 0.618736 37.7906 0.907385C36.6878 1.19603 35.7479 1.69932 34.9855 2.40983C34.2232 3.12035 33.5793 4.08991 33.0538 5.31852C32.5283 6.54712 32.0472 8.11619 31.6105 10.0183C31.1739 11.9204 30.937 13.4821 30.8926 14.7033C30.8482 15.9245 31.0554 16.894 31.4921 17.5972C31.9288 18.3077 32.6319 18.8036 33.6089 19.0996C34.5785 19.3883 35.8589 19.5363 37.4502 19.5363C39.0192 19.5363 40.3663 19.3883 41.4765 19.0996C42.5941 18.811 43.5266 18.3077 44.2816 17.5972C45.0365 16.8866 45.6804 15.9245 46.2133 14.7033C46.7462 13.4821 47.2347 11.9204 47.6714 10.0183C48.1006 8.12359 48.3375 6.55452 48.3671 5.31852ZM42.0908 14.0076C41.9354 14.6885 41.6467 15.1622 41.2396 15.436C40.8252 15.7099 40.1664 15.8431 39.2561 15.8431H34.9189L37.1837 6.00684C37.3391 5.32592 37.6204 4.85224 38.0201 4.57839C38.4197 4.30455 39.071 4.17132 39.9592 4.17132H44.3556L42.0908 14.0076Z" fill="white"/>
<path d="M62.6659 1.53633C61.8813 1.12186 60.7563 0.907227 59.3057 0.907227H51.4455L47.2563 19.0921H51.5935L52.9405 13.2451H55.8197L57.2111 19.0921H61.9257L60.3196 12.5716C60.7489 12.3717 61.1412 12.1275 61.4816 11.8314C62.5844 10.8915 63.369 9.38904 63.8427 7.33889C64.2053 5.76983 64.2941 4.51162 64.1165 3.57167C63.9389 2.63171 63.4504 1.9582 62.6659 1.53633ZM54.9611 4.48942H58.3657C58.9652 4.48942 59.3575 4.57823 59.5425 4.74846C59.7275 4.92609 59.7646 5.24434 59.6535 5.71062L58.9504 8.76734C58.8468 9.23362 58.6543 9.55187 58.3953 9.7295C58.1289 9.90713 57.6996 9.98854 57.1001 9.98854H53.6955L54.9611 4.48942Z" fill="white"/>
<path d="M78.7119 0.916016H65.471L64.6494 4.49081H69.105L65.7374 19.1009H70.0746L73.4348 4.49081H77.8903L78.7119 0.916016Z" fill="white"/>
<path d="M93.9605 0.916016H80.2311L79.4317 4.49081H87.1143L87.1661 4.66844L75.7681 16.2514L75.1094 19.1009H89.6011L90.4301 15.5187H82.0148L81.9704 15.3484L93.3092 3.7655L93.9605 0.916016Z" fill="white"/>
<path d="M107.874 0.916016H94.6327L93.8037 4.49081H98.2593L94.8991 19.1009H99.2289L102.596 4.49081H107.045L107.874 0.916016Z" fill="white"/>
<path d="M119.079 11.8402C120.182 10.9003 120.967 9.39784 121.44 7.34769C121.803 5.77863 121.892 4.52042 121.714 3.58047C121.529 2.64051 121.048 1.95959 120.264 1.54513C119.479 1.13066 118.354 0.916016 116.903 0.916016H109.043L104.854 19.1009H109.191L110.538 13.2539H113.417L114.809 19.1009H119.523L117.917 12.5804C118.339 12.3805 118.731 12.1363 119.079 11.8402ZM112.551 4.49081H115.956C116.555 4.49081 116.948 4.57962 117.133 4.74985C117.318 4.92748 117.355 5.24574 117.244 5.71201L116.541 8.76873C116.437 9.23501 116.245 9.55326 115.986 9.73089C115.719 9.90852 115.29 9.98993 114.69 9.98993H111.286L112.551 4.49081Z" fill="white"/>
<path d="M128.967 0.916016L119.745 19.1009H124.082L125.851 15.6075H131.979L132.142 19.1009H136.479L135.628 0.916016H128.967ZM127.494 12.3805L131.225 5.0163H131.484L131.824 12.3805H127.494Z" fill="white"/>
<path d="M155.59 5.48258C155.627 4.29838 155.442 3.37323 155.02 2.70711C154.598 2.041 153.91 1.57472 152.955 1.30828C152 1.04924 150.72 0.916016 149.128 0.916016H141.823L137.634 19.1009H144.939C146.531 19.1009 147.863 18.9676 148.943 18.7086C150.024 18.4495 150.927 17.9833 151.652 17.3098C152.378 16.6436 152.992 15.7111 153.503 14.5343C154.013 13.3575 154.472 11.8476 154.887 10.0269C155.316 8.17663 155.553 6.66678 155.59 5.48258ZM151.082 6.35593L149.402 13.6609C149.225 14.4159 148.943 14.934 148.551 15.2152C148.159 15.4964 147.53 15.6371 146.679 15.6371H142.778L145.369 4.37239H149.269C150.12 4.37239 150.683 4.51302 150.949 4.79427C151.208 5.08292 151.26 5.601 151.082 6.35593Z" fill="white"/>
<path d="M169.408 4.49081L170.785 0.916016H158.972L154.783 19.1009H166.566L167.395 15.5187H159.942L160.845 11.6256H167.217L167.958 8.39127H161.585L162.481 4.49081H169.408Z" fill="white"/>
</svg>
