<svg width="18" height="19" viewBox="0 0 18 19" fill="none" xmlns="http://www.w3.org/2000/svg">
    <path d="M4.875 17V11.75" stroke="#888696" stroke-width="1.3" stroke-miterlimit="10" stroke-linecap="round" stroke-linejoin="round"/>
    <path d="M4.875 4.25V2" stroke="#888696" stroke-width="1.3" stroke-miterlimit="10" stroke-linecap="round" stroke-linejoin="round"/>
    <path d="M13.125 17V14.75" stroke="#888696" stroke-width="1.3" stroke-miterlimit="10" stroke-linecap="round" stroke-linejoin="round"/>
    <path d="M13.125 7.25V2" stroke="#888696" stroke-width="1.3" stroke-miterlimit="10" stroke-linecap="round" stroke-linejoin="round"/>
    <path d="M7.125 5.75V10.25C7.125 11.075 6.75 11.75 5.625 11.75H4.125C3 11.75 2.625 11.075 2.625 10.25V5.75C2.625 4.925 3 4.25 4.125 4.25H5.625C6.75 4.25 7.125 4.925 7.125 5.75Z" stroke="#888696" stroke-width="1.3" stroke-miterlimit="10" stroke-linecap="round" stroke-linejoin="round"/>
    <path d="M15.375 8.75V13.25C15.375 14.075 15 14.75 13.875 14.75H12.375C11.25 14.75 10.875 14.075 10.875 13.25V8.75C10.875 7.925 11.25 7.25 12.375 7.25H13.875C15 7.25 15.375 7.925 15.375 8.75Z" stroke="#888696" stroke-width="1.3" stroke-miterlimit="10" stroke-linecap="round" stroke-linejoin="round"/>
</svg>
