<svg width="20" height="21" viewBox="0 0 20 21" fill="none" xmlns="http://www.w3.org/2000/svg">
<path d="M10.0003 18.8337C14.6027 18.8337 18.3337 15.1027 18.3337 10.5003C18.3337 5.89795 14.6027 2.16699 10.0003 2.16699C5.39795 2.16699 1.66699 5.89795 1.66699 10.5003C1.66699 15.1027 5.39795 18.8337 10.0003 18.8337Z" stroke="#888696" stroke-width="1.3" stroke-linecap="round" stroke-linejoin="round"/>
<path d="M6.66667 3H7.5C5.875 7.86667 5.875 13.1333 7.5 18H6.66667" stroke="#888696" stroke-width="1.3" stroke-linecap="round" stroke-linejoin="round"/>
<path d="M12.5 3C14.125 7.86667 14.125 13.1333 12.5 18" stroke="#888696" stroke-width="1.3" stroke-linecap="round" stroke-linejoin="round"/>
<path d="M2.5 13.8333V13C7.36667 14.625 12.6333 14.625 17.5 13V13.8333" stroke="#888696" stroke-width="1.3" stroke-linecap="round" stroke-linejoin="round"/>
<path d="M2.5 8C7.36667 6.375 12.6333 6.375 17.5 8" stroke="#888696" stroke-width="1.3" stroke-linecap="round" stroke-linejoin="round"/>
</svg>
