<svg width="18" height="19" viewBox="0 0 18 19" fill="none" xmlns="http://www.w3.org/2000/svg">
<path d="M0.999822 14.9998C0.829822 14.9998 0.649822 14.9398 0.509822 14.8198C0.199822 14.5498 0.159822 14.0798 0.429822 13.7598L5.01982 8.39982C5.51982 7.81982 6.23982 7.46982 6.99982 7.43982C7.75982 7.41982 8.50982 7.69981 9.04982 8.23981L9.99982 9.18982C10.2498 9.43982 10.5798 9.55982 10.9298 9.55982C11.2798 9.54982 11.5998 9.38982 11.8298 9.11982L16.4198 3.75983C16.6898 3.44983 17.1598 3.40981 17.4798 3.67981C17.7898 3.94981 17.8298 4.41981 17.5598 4.73981L12.9698 10.0998C12.4698 10.6798 11.7498 11.0298 10.9898 11.0598C10.2298 11.0798 9.47982 10.7998 8.93982 10.2598L7.99982 9.30982C7.74982 9.05982 7.41982 8.92982 7.06982 8.93982C6.71982 8.94982 6.39982 9.10983 6.16982 9.37983L1.57982 14.7398C1.41982 14.9098 1.20982 14.9998 0.999822 14.9998Z" fill="#888696"/>
</svg>
