<svg width="18" height="18" viewBox="0 0 18 18" fill="none" xmlns="http://www.w3.org/2000/svg">
<path d="M11.1594 7.62582C12.3271 8.79359 12.3271 10.6869 11.1594 11.8547C9.9916 13.0224 8.09828 13.0224 6.93051 11.8547C5.76275 10.6869 5.76275 8.79359 6.93051 7.62582C8.09828 6.45806 9.9916 6.45806 11.1594 7.62582" stroke="#EA580C" stroke-width="1.3" stroke-linecap="round" stroke-linejoin="round"/>
<path fill-rule="evenodd" clip-rule="evenodd" d="M15.75 6.75V13.5C15.75 14.3288 15.0788 15 14.25 15H3.75C2.92125 15 2.25 14.3288 2.25 13.5V6.75C2.25 5.92125 2.92125 5.25 3.75 5.25H5.25L6.3465 3.372C6.48075 3.14175 6.7275 3 6.9945 3H10.9725C11.2358 3 11.4795 3.138 11.6153 3.363L12.75 5.25H14.25C15.0788 5.25 15.75 5.92125 15.75 6.75Z" stroke="#EA580C" stroke-width="1.3" stroke-linecap="round" stroke-linejoin="round"/>
</svg>
