<svg width="20" height="21" viewBox="0 0 20 21" fill="none" xmlns="http://www.w3.org/2000/svg">
    <path fill-rule="evenodd" clip-rule="evenodd" d="M2.5 18V4.66687C2.5 3.74625 3.24625 3 4.16687 3H15.8331C16.7537 3 17.5 3.74625 17.5 4.66687V14.6672C17.5 15.5878 16.7537 16.3341 15.8331 16.3341H5.62469L2.5 18Z" stroke="#EA580C" stroke-width="1.3" stroke-linecap="round" stroke-linejoin="round"/>
    <path d="M9.99786 12.8254C9.91786 12.8254 9.85286 12.8904 9.8537 12.9704C9.8537 13.0504 9.9187 13.1154 9.9987 13.1154C10.0787 13.1154 10.1437 13.0504 10.1437 12.9704C10.1445 12.8904 10.0795 12.8254 9.99786 12.8254" stroke="#EA580C" stroke-width="1.5" stroke-linecap="round" stroke-linejoin="round"/>
    <path d="M9.99953 10.5636V10.3636C9.99953 9.70777 10.4045 9.35277 10.8112 9.08027C11.2079 8.81361 11.6054 8.46527 11.6054 7.82277C11.6054 6.93611 10.887 6.21777 10.0004 6.21777C9.1137 6.21777 8.39453 6.93444 8.39453 7.82111" stroke="#EA580C" stroke-width="1.3" stroke-linecap="round" stroke-linejoin="round"/>
</svg>
