<svg width="25" height="24" viewBox="0 0 25 24" fill="none" xmlns="http://www.w3.org/2000/svg">
<path d="M22.6441 10.0264H13.7145C13.3207 10.0264 13.002 10.3451 13.002 10.7389V13.5936C13.002 13.9873 13.3207 14.3061 13.7145 14.3061H18.7441C18.1957 15.7357 17.1645 16.9311 15.8566 17.6904L17.9988 21.4029C21.4348 19.4154 23.4691 15.9232 23.4691 12.0186C23.4691 11.4607 23.427 11.0623 23.3473 10.617C23.2816 10.2748 22.9863 10.0264 22.6441 10.0264Z" fill="#167EE6"/>
<path d="M12.5232 18.5906C10.0623 18.5906 7.91543 17.2453 6.76231 15.2578L3.0498 17.3953C4.93887 20.6719 8.47793 22.875 12.5232 22.875C14.5107 22.875 16.3811 22.3406 17.9982 21.4078V21.4031L15.8561 17.6906C14.8717 18.2625 13.7373 18.5906 12.5232 18.5906Z" fill="#12B347"/>
<path d="M17.9938 21.4076V21.4029L15.8516 17.6904C14.8719 18.2576 13.7375 18.5904 12.5234 18.5904V22.8748C14.5109 22.8748 16.3813 22.3404 17.9938 21.4076Z" fill="#0F993E"/>
<path d="M5.8625 11.9295C5.8625 10.7154 6.19531 9.58106 6.7625 8.60137L3.05 6.46387C2.1125 8.07168 1.57812 9.93731 1.57812 11.9295C1.57812 13.9217 2.1125 15.7873 3.05 17.3951L6.7625 15.2576C6.19063 14.2779 5.8625 13.1436 5.8625 11.9295Z" fill="#FFD500"/>
<path d="M12.5232 5.26875C14.1264 5.26875 15.6029 5.84063 16.7514 6.7875C17.0373 7.02188 17.4498 7.00312 17.7076 6.74531L19.7279 4.725C20.0232 4.42969 19.9998 3.94688 19.6857 3.675C17.7592 1.99688 15.2514 0.984375 12.5232 0.984375C8.47793 0.984375 4.93887 3.1875 3.0498 6.46406L6.76231 8.60156C7.91543 6.61406 10.0623 5.26875 12.5232 5.26875Z" fill="#FF4B26"/>
<path d="M16.7516 6.7875C17.0375 7.02188 17.45 7.00312 17.7078 6.74531L19.7281 4.725C20.0234 4.42969 20 3.94688 19.6859 3.675C17.7594 1.99688 15.2516 0.984375 12.5234 0.984375V5.26875C14.1266 5.26875 15.6031 5.83594 16.7516 6.7875Z" fill="#D93F21"/>
</svg>
