<svg width="14" height="18" viewBox="0 0 14 18" fill="none" xmlns="http://www.w3.org/2000/svg">
<path fill-rule="evenodd" clip-rule="evenodd" d="M10.8462 16.5H2.51286C1.59202 16.5 0.846191 15.7542 0.846191 14.8333V8.16667C0.846191 7.24583 1.59202 6.5 2.51286 6.5H10.8462C11.767 6.5 12.5129 7.24583 12.5129 8.16667V14.8333C12.5129 15.7542 11.767 16.5 10.8462 16.5Z" stroke="#EA580C" stroke-width="1.3" stroke-linecap="round" stroke-linejoin="round"/>
<path d="M10.0129 6.5V4.83333C10.0129 2.9925 8.52036 1.5 6.67952 1.5V1.5C4.83869 1.5 3.34619 2.9925 3.34619 4.83333V6.5" stroke="#EA580C" stroke-width="1.3" stroke-linecap="round" stroke-linejoin="round"/>
<path d="M6.67771 11.083C6.44771 11.083 6.26104 11.2697 6.26271 11.4997C6.26271 11.7297 6.44937 11.9163 6.67937 11.9163C6.90937 11.9163 7.09604 11.7297 7.09604 11.4997C7.09604 11.2697 6.90937 11.083 6.67771 11.083" stroke="#EA580C" stroke-width="1.3" stroke-linecap="round" stroke-linejoin="round"/>
</svg>
