<svg width="82" height="82" viewBox="0 0 82 82" fill="none" xmlns="http://www.w3.org/2000/svg">
<path d="M76.2107 37.3539V74.4932C76.2107 76.3087 74.7338 77.7764 72.9182 77.7764H9.08156C7.26602 77.7764 5.78906 76.3091 5.78906 74.4932V37.3539C5.78906 35.8113 6.44763 34.3436 7.5857 33.309L17.3504 24.4662L64.6401 24.4473L74.4141 33.3087C75.5522 34.3436 76.2107 35.8113 76.2107 37.3539Z" fill="#EA580C" fill-opacity="0.05"/>
<path d="M32.665 10.588L38.6924 5.13016C39.9973 3.93187 42.0025 3.93187 43.3196 5.13016L49.3469 10.588" fill="#EA580C" fill-opacity="0.05"/>
<path d="M64.6437 13.4005V41.5146C64.6437 42.4359 64.193 43.2991 63.4371 43.8257L42.61 58.3336C41.6424 59.0075 40.3576 59.0075 39.3899 58.3336L18.552 43.8148C17.7961 43.2882 17.3457 42.425 17.3457 41.5037V13.4005C17.3457 11.8451 18.6068 10.584 20.1622 10.584H61.8275C63.3826 10.584 64.6437 11.8451 64.6437 13.4005Z" fill="#EA580C"/>
<path d="M51.008 34.8977C51.008 40.4266 46.5233 44.8995 40.9944 44.8995C35.4652 44.8995 30.9805 40.4266 30.9805 34.8977C30.9805 31.7535 32.4283 28.9537 34.6942 27.1144C36.4146 25.7265 38.6097 24.8838 40.9944 24.8838C43.3791 24.8838 45.5739 25.7262 47.2943 27.1144C49.5608 28.9537 51.008 31.7535 51.008 34.8977Z" fill="#21161B"/>
<path d="M40.9943 36.8323C42.2952 36.8323 43.3498 35.7776 43.3498 34.4767C43.3498 33.1757 42.2952 32.1211 40.9943 32.1211C39.6933 32.1211 38.6387 33.1757 38.6387 34.4767C38.6387 35.7776 39.6933 36.8323 40.9943 36.8323Z" fill="#D4E3FF"/>
<path d="M40.9943 36.8323C42.2952 36.8323 43.3498 35.7776 43.3498 34.4767C43.3498 33.1757 42.2952 32.1211 40.9943 32.1211C39.6933 32.1211 38.6387 33.1757 38.6387 34.4767C38.6387 35.7776 39.6933 36.8323 40.9943 36.8323Z" fill="#21161B"/>
<path d="M75.0488 32.6114L65.5849 24.0318V13.401C65.5849 11.3295 63.8991 9.64369 61.8276 9.64369H49.7054L43.9532 4.43445C42.2655 2.89951 39.7312 2.89983 38.0617 4.43316L32.3067 9.64337H20.1623C18.0909 9.64337 16.4051 11.3292 16.4051 13.4006V24.0545L6.95104 32.6111C5.6163 33.8215 4.85107 35.5499 4.85107 37.3536V74.4897C4.85107 76.8847 6.93983 78.7143 8.84441 78.7143C16.4986 78.7146 69.1637 78.7184 73.1555 78.7143C74.9877 78.7143 77.1488 76.9766 77.1488 74.4897V37.3539C77.1488 35.5493 76.3836 33.8206 75.0488 32.6114ZM65.5849 26.5716L73.7849 34.0057C74.0879 34.2799 74.332 34.6021 74.5472 34.942L65.5849 41.1849V26.5716ZM39.3295 5.82268C40.2802 4.94951 41.7235 4.94951 42.6889 5.82717L46.903 9.64337H35.1091L39.3295 5.82268ZM18.2866 13.401C18.2866 12.3667 19.128 11.5249 20.1627 11.5249H61.8276C62.8619 11.5249 63.7037 12.3663 63.7037 13.401V41.5148C63.7037 42.1279 63.4032 42.7035 62.8997 43.0545L42.0727 57.5624C41.4324 58.0074 40.571 58.0083 39.9301 57.5637C38.103 56.2908 21.2508 44.5491 19.0896 43.0433C18.587 42.6929 18.2866 42.1173 18.2866 41.5042C18.2866 31.8977 18.2866 23.092 18.2866 13.401ZM8.21436 34.0057L16.4051 26.5921V41.1772L7.45297 34.9416C7.66822 34.6018 7.91166 34.2799 8.21436 34.0057ZM7.17718 75.8532C6.90011 75.4682 6.73259 74.9996 6.73259 74.49C6.74572 60.7223 6.6855 37.6031 6.79377 36.7748L34.3627 55.9782C6.17589 76.441 7.62082 75.0707 7.17718 75.8532ZM8.81782 76.7501L35.9989 57.1178C36.1741 57.2399 40.7488 60.4264 40.4631 60.2274C40.7866 60.4526 41.2139 60.4529 41.5381 60.2274L46.001 57.1188L73.1305 76.8148C72.6792 76.8552 76.9438 76.8244 8.81782 76.7501ZM75.2676 74.49C75.2676 74.9993 75.1001 75.4679 74.8233 75.8532C74.3807 75.0723 75.7952 76.4196 47.6384 55.9782L75.2068 36.7754C75.3352 37.7623 75.2289 34.1284 75.2676 74.49Z" fill="#EA580C"/>
<path d="M40.9938 45.8403C47.0339 45.8403 51.9478 40.9315 51.9478 34.8978C51.9478 31.7398 50.5932 28.7856 48.2344 26.7004V22.0603C48.2344 18.0129 44.9605 14.8193 40.9934 14.8193C37.0011 14.8193 33.7524 18.0676 33.7524 22.0603V26.7004C31.3943 28.785 30.0391 31.7398 30.0391 34.8975C30.0397 40.9315 34.9536 45.8403 40.9938 45.8403ZM35.6343 22.0603C35.6343 19.1051 38.0385 16.7009 40.9938 16.7009C43.9185 16.7009 46.3532 19.0526 46.3532 22.0603V25.3477C46.3516 25.3467 46.35 25.3464 46.3484 25.3454C44.8035 24.4822 42.9505 23.9434 40.9938 23.9434C39.1039 23.9434 37.1753 24.487 35.6417 25.3442C35.6394 25.3454 35.6365 25.3464 35.6343 25.3477V22.0603ZM40.9938 25.825C45.9455 25.825 50.0666 29.8305 50.0666 34.8978C50.0666 39.8944 45.997 43.9591 40.9938 43.9591C35.9905 43.9591 31.9209 39.8944 31.9209 34.8978C31.9212 29.818 36.0558 25.825 40.9938 25.825Z" fill="#21161B"/>
<path d="M40.0542 37.6196V39.6308C40.0542 40.1504 40.475 40.5716 40.9949 40.5716C41.5148 40.5716 41.9357 40.1504 41.9357 39.6308V37.6196C43.2928 37.2115 44.2912 35.9652 44.2912 34.4767C44.2912 32.6592 42.812 31.1807 40.9952 31.1807C39.1781 31.1807 37.6992 32.6592 37.6992 34.4767C37.6989 35.9652 38.6973 37.2118 40.0542 37.6196ZM40.9949 33.0622C41.7749 33.0622 42.4097 33.697 42.4097 34.477C42.4097 35.257 41.7749 35.8918 40.9949 35.8918C40.215 35.8918 39.5801 35.257 39.5801 34.477C39.5801 33.697 40.215 33.0622 40.9949 33.0622Z" fill="#EA580C"/>
</svg>
