<svg width="20" height="21" viewBox="0 0 20 21" fill="none" xmlns="http://www.w3.org/2000/svg">
<path d="M9.99967 15.9163C12.9912 15.9163 15.4163 13.4912 15.4163 10.4997C15.4163 7.50813 12.9912 5.08301 9.99967 5.08301C7.00813 5.08301 4.58301 7.50813 4.58301 10.4997C4.58301 13.4912 7.00813 15.9163 9.99967 15.9163Z" stroke="#888696" stroke-width="1.5" stroke-linecap="round" stroke-linejoin="round"/>
<path d="M15.9503 16.4503L15.842 16.342M15.842 4.65866L15.9503 4.55033L15.842 4.65866ZM4.05033 16.4503L4.15866 16.342L4.05033 16.4503ZM10.0003 2.23366V2.16699V2.23366ZM10.0003 18.8337V18.767V18.8337ZM1.73366 10.5003H1.66699H1.73366ZM18.3337 10.5003H18.267H18.3337ZM4.15866 4.65866L4.05033 4.55033L4.15866 4.65866Z" stroke="#888696" stroke-width="2" stroke-linecap="round" stroke-linejoin="round"/>
</svg>
